<?xml version="1.0" standalone="no"?>
<!DOCTYPE svg PUBLIC "-//W3C//DTD SVG 20010904//EN"
 "http://www.w3.org/TR/2001/REC-SVG-20010904/DTD/svg10.dtd">
<svg version="1.0" xmlns="http://www.w3.org/2000/svg"
 width="260.000000pt" height="260.000000pt" viewBox="0 0 260.000000 260.000000"
 preserveAspectRatio="xMidYMid meet">
<metadata>
Created by potrace 1.11, written by Peter Selinger 2001-2013
</metadata>
<g transform="translate(0.000000,260.000000) scale(0.100000,-0.100000)"
fill="#000000" stroke="none">
<path d="M0 1300 l0 -1300 1300 0 1300 0 0 1300 0 1300 -1300 0 -1300 0 0
-1300z m1165 280 c62 -175 164 -459 205 -567 21 -57 36 -103 33 -103 -3 0 -37
20 -77 43 -66 41 -240 143 -296 174 -25 15 -17 7 53 -48 20 -15 19 -16 -14
-36 -19 -11 -82 -46 -141 -77 l-108 -57 14 38 c8 21 60 155 116 298 55 143
117 302 137 353 20 51 37 91 38 90 2 -2 19 -50 40 -108z m399 -14 c71 -30 113
-130 86 -210 -6 -20 -31 -53 -55 -74 l-44 -38 34 -13 c43 -15 81 -60 95 -111
15 -56 -2 -113 -50 -163 -37 -40 -40 -42 -113 -45 l-75 -4 -16 43 c-8 24 -45
125 -82 224 -85 233 -144 396 -144 401 0 2 74 4 165 4 119 0 175 -4 199 -14z"/>
</g>
</svg>
